<?xml version="1.0" standalone="no"?>
<!DOCTYPE svg PUBLIC "-//W3C//DTD SVG 20010904//EN"
 "http://www.w3.org/TR/2001/REC-SVG-20010904/DTD/svg10.dtd">
<svg version="1.0" xmlns="http://www.w3.org/2000/svg"
 width="32.000000pt" height="32.000000pt" viewBox="0 0 32.000000 32.000000"
 preserveAspectRatio="xMidYMid meet">

<g transform="translate(0.000000,32.000000) scale(0.100000,-0.100000)"
fill="#000000" stroke="none">
<path d="M50 313 c0 -3 18 -40 41 -81 35 -64 39 -76 27 -90 -8 -10 -38 -45
-67 -80 l-53 -62 54 0 c54 0 55 0 73 40 29 65 39 66 65 10 l23 -50 55 0 54 0
-53 63 c-29 34 -59 69 -66 78 -12 15 -8 28 31 98 24 44 42 81 38 81 -4 0 -29
-27 -55 -60 -27 -33 -53 -60 -57 -60 -5 0 -30 27 -56 60 -46 59 -54 67 -54 53z"/>
</g>
</svg>
